<svg xmlns="http://www.w3.org/2000/svg" width="1200" height="760" viewBox="0 0 1200 760">
  <rect width="1200" height="760" fill="#f7f4ee"/>
  <text x="600" y="48" text-anchor="middle" font-family="Georgia, serif" font-size="30" fill="#1f2a36">Dataset Roles and Evidence Hierarchy</text>
  <text x="600" y="78" text-anchor="middle" font-family="Helvetica, Arial, sans-serif" font-size="16" fill="#56616b">Benchmark datasets and deployment evidence serve different argumentative roles in the report.</text>

  <rect x="60" y="130" width="300" height="520" rx="22" fill="#e8efe5" stroke="#7d9778" stroke-width="2"/>
  <text x="210" y="168" text-anchor="middle" font-family="Helvetica, Arial, sans-serif" font-size="24" font-weight="700" fill="#243126">Benchmark Datasets</text>

  <rect x="95" y="205" width="230" height="115" rx="18" fill="#ffffff" stroke="#7d9778" stroke-width="2"/>
  <text x="210" y="238" text-anchor="middle" font-family="Helvetica, Arial, sans-serif" font-size="22" font-weight="700" fill="#243126">CAUCAFall</text>
  <text x="210" y="268" text-anchor="middle" font-family="Helvetica, Arial, sans-serif" font-size="16" fill="#3d4b3f">Primary benchmark</text>
  <text x="210" y="291" text-anchor="middle" font-family="Helvetica, Arial, sans-serif" font-size="16" fill="#3d4b3f">Deployment target</text>

  <rect x="95" y="348" width="230" height="115" rx="18" fill="#ffffff" stroke="#7d9778" stroke-width="2"/>
  <text x="210" y="381" text-anchor="middle" font-family="Helvetica, Arial, sans-serif" font-size="22" font-weight="700" fill="#243126">LE2i</text>
  <text x="210" y="411" text-anchor="middle" font-family="Helvetica, Arial, sans-serif" font-size="16" fill="#3d4b3f">Comparative dataset</text>
  <text x="210" y="434" text-anchor="middle" font-family="Helvetica, Arial, sans-serif" font-size="16" fill="#3d4b3f">Transfer boundary</text>

  <rect x="95" y="491" width="230" height="115" rx="18" fill="#ffffff" stroke="#7d9778" stroke-width="2"/>
  <text x="210" y="524" text-anchor="middle" font-family="Helvetica, Arial, sans-serif" font-size="22" font-weight="700" fill="#243126">MUVIM</text>
  <text x="210" y="554" text-anchor="middle" font-family="Helvetica, Arial, sans-serif" font-size="16" fill="#3d4b3f">Exploratory track</text>
  <text x="210" y="577" text-anchor="middle" font-family="Helvetica, Arial, sans-serif" font-size="16" fill="#3d4b3f">Supporting evidence</text>

  <rect x="450" y="130" width="300" height="520" rx="22" fill="#e6eef5" stroke="#6d8aa6" stroke-width="2"/>
  <text x="600" y="168" text-anchor="middle" font-family="Helvetica, Arial, sans-serif" font-size="24" font-weight="700" fill="#223344">System-Evidence Artifacts</text>

  <rect x="485" y="215" width="230" height="95" rx="18" fill="#ffffff" stroke="#6d8aa6" stroke-width="2"/>
  <text x="600" y="248" text-anchor="middle" font-family="Helvetica, Arial, sans-serif" font-size="21" font-weight="700" fill="#223344">Replay Matrix</text>
  <text x="600" y="278" text-anchor="middle" font-family="Helvetica, Arial, sans-serif" font-size="16" fill="#435565">Bounded runtime surface</text>

  <rect x="485" y="336" width="230" height="95" rx="18" fill="#ffffff" stroke="#6d8aa6" stroke-width="2"/>
  <text x="600" y="369" text-anchor="middle" font-family="Helvetica, Arial, sans-serif" font-size="21" font-weight="700" fill="#223344">Field Pack</text>
  <text x="600" y="399" text-anchor="middle" font-family="Helvetica, Arial, sans-serif" font-size="16" fill="#435565">Sparse real-world checks</text>

  <rect x="485" y="457" width="230" height="95" rx="18" fill="#ffffff" stroke="#6d8aa6" stroke-width="2"/>
  <text x="600" y="490" text-anchor="middle" font-family="Helvetica, Arial, sans-serif" font-size="21" font-weight="700" fill="#223344">Live Demo</text>
  <text x="600" y="520" text-anchor="middle" font-family="Helvetica, Arial, sans-serif" font-size="16" fill="#435565">Operational confirmation</text>

  <rect x="840" y="130" width="300" height="520" rx="22" fill="#f5e8dd" stroke="#b2815d" stroke-width="2"/>
  <text x="990" y="168" text-anchor="middle" font-family="Helvetica, Arial, sans-serif" font-size="24" font-weight="700" fill="#4d3423">Report Role</text>

  <rect x="875" y="205" width="230" height="140" rx="18" fill="#ffffff" stroke="#b2815d" stroke-width="2"/>
  <text x="990" y="240" text-anchor="middle" font-family="Helvetica, Arial, sans-serif" font-size="20" font-weight="700" fill="#4d3423">Primary Claims</text>
  <text x="990" y="272" text-anchor="middle" font-family="Helvetica, Arial, sans-serif" font-size="16" fill="#6b4e39">Architecture comparison</text>
  <text x="990" y="295" text-anchor="middle" font-family="Helvetica, Arial, sans-serif" font-size="16" fill="#6b4e39">Transfer limits</text>
  <text x="990" y="318" text-anchor="middle" font-family="Helvetica, Arial, sans-serif" font-size="16" fill="#6b4e39">Validation-fitted policy</text>

  <rect x="875" y="390" width="230" height="140" rx="18" fill="#ffffff" stroke="#b2815d" stroke-width="2"/>
  <text x="990" y="425" text-anchor="middle" font-family="Helvetica, Arial, sans-serif" font-size="20" font-weight="700" fill="#4d3423">Bounded System Claims</text>
  <text x="990" y="457" text-anchor="middle" font-family="Helvetica, Arial, sans-serif" font-size="16" fill="#6b4e39">Runtime credibility</text>
  <text x="990" y="480" text-anchor="middle" font-family="Helvetica, Arial, sans-serif" font-size="16" fill="#6b4e39">Persistence and delivery</text>
  <text x="990" y="503" text-anchor="middle" font-family="Helvetica, Arial, sans-serif" font-size="16" fill="#6b4e39">Not benchmark replacements</text>

  <path d="M325 260 C380 260, 420 248, 485 248" fill="none" stroke="#607d5f" stroke-width="3"/>
  <polygon points="478,242 494,248 478,254" fill="#607d5f"/>
  <path d="M325 402 C380 402, 420 369, 485 369" fill="none" stroke="#607d5f" stroke-width="3"/>
  <polygon points="478,363 494,369 478,375" fill="#607d5f"/>
  <path d="M325 548 C380 548, 420 490, 485 490" fill="none" stroke="#607d5f" stroke-width="3"/>
  <polygon points="478,484 494,490 478,496" fill="#607d5f"/>

  <path d="M715 248 C770 248, 800 250, 875 250" fill="none" stroke="#7e6b58" stroke-width="3"/>
  <polygon points="868,244 884,250 868,256" fill="#7e6b58"/>
  <path d="M715 369 C770 369, 800 460, 875 460" fill="none" stroke="#7e6b58" stroke-width="3"/>
  <polygon points="868,454 884,460 868,466" fill="#7e6b58"/>
  <path d="M715 490 C770 490, 800 460, 875 460" fill="none" stroke="#7e6b58" stroke-width="3"/>
  <polygon points="868,454 884,460 868,466" fill="#7e6b58"/>

  <text x="600" y="705" text-anchor="middle" font-family="Helvetica, Arial, sans-serif" font-size="16" fill="#44505a">Benchmark datasets justify primary model and transfer claims; replay, live, and field artifacts justify bounded system claims.</text>
</svg>
