<svg xmlns="http://www.w3.org/2000/svg" width="1600" height="900" viewBox="0 0 1600 900">
<defs>
  <marker id="arrow" viewBox="0 0 10 10" refX="9" refY="5" markerWidth="8" markerHeight="8" orient="auto-start-reverse">
    <path d="M 0 0 L 10 5 L 0 10 z" fill="#334155"/>
  </marker>
</defs>
<rect width="100%" height="100%" fill="#ffffff"/>
<text x="800" y="50" text-anchor="middle" font-family="Arial, Helvetica, sans-serif" font-size="28" font-weight="700" fill="#0f172a">Figure 1. System Architecture and Decision Path</text>
<rect x="60" y="110" rx="22" ry="22" width="620" height="690" fill="none" stroke="#94a3b8" stroke-width="2" stroke-dasharray="10 8"/>
<text x="78" y="142" text-anchor="start" font-family="Arial, Helvetica, sans-serif" font-size="18" font-weight="700" fill="#0f172a">Frontend / Client</text>
<rect x="900" y="110" rx="22" ry="22" width="640" height="690" fill="none" stroke="#94a3b8" stroke-width="2" stroke-dasharray="10 8"/>
<text x="918" y="142" text-anchor="start" font-family="Arial, Helvetica, sans-serif" font-size="18" font-weight="700" fill="#0f172a">Backend / Runtime</text>
<rect x="130" y="190" rx="18" ry="18" width="220" height="90" fill="#dbeafe" stroke="#334155" stroke-width="2"/>
<text x="240" y="241" text-anchor="middle" font-family="Arial, Helvetica, sans-serif" font-size="20" font-weight="600" fill="#0f172a">Camera / Replay Video</text>
<rect x="430" y="190" rx="18" ry="18" width="200" height="90" fill="#dbeafe" stroke="#334155" stroke-width="2"/>
<text x="530" y="241" text-anchor="middle" font-family="Arial, Helvetica, sans-serif" font-size="20" font-weight="600" fill="#0f172a">Pose Extraction</text>
<rect x="270" y="370" rx="18" ry="18" width="220" height="90" fill="#dbeafe" stroke="#334155" stroke-width="2"/>
<text x="380" y="421" text-anchor="middle" font-family="Arial, Helvetica, sans-serif" font-size="20" font-weight="600" fill="#0f172a">Temporal Window Builder</text>
<rect x="270" y="560" rx="18" ry="18" width="220" height="90" fill="#dbeafe" stroke="#334155" stroke-width="2"/>
<text x="380" y="611" text-anchor="middle" font-family="Arial, Helvetica, sans-serif" font-size="20" font-weight="600" fill="#0f172a">Monitor UI State</text>
<rect x="980" y="190" rx="18" ry="18" width="210" height="90" fill="#dcfce7" stroke="#334155" stroke-width="2"/>
<text x="1085" y="241" text-anchor="middle" font-family="Arial, Helvetica, sans-serif" font-size="20" font-weight="600" fill="#0f172a">Inference Runtime</text>
<rect x="1260" y="190" rx="18" ry="18" width="190" height="90" fill="#dcfce7" stroke="#334155" stroke-width="2"/>
<text x="1355" y="241" text-anchor="middle" font-family="Arial, Helvetica, sans-serif" font-size="20" font-weight="600" fill="#0f172a">TCN / GCN Output</text>
<rect x="1090" y="370" rx="18" ry="18" width="250" height="90" fill="#dcfce7" stroke="#334155" stroke-width="2"/>
<text x="1215" y="421" text-anchor="middle" font-family="Arial, Helvetica, sans-serif" font-size="20" font-weight="600" fill="#0f172a">Operating Point + Policy</text>
<rect x="980" y="560" rx="18" ry="18" width="220" height="90" fill="#dcfce7" stroke="#334155" stroke-width="2"/>
<text x="1090" y="611" text-anchor="middle" font-family="Arial, Helvetica, sans-serif" font-size="20" font-weight="600" fill="#0f172a">Event Persistence</text>
<rect x="1280" y="560" rx="18" ry="18" width="190" height="90" fill="#dcfce7" stroke="#334155" stroke-width="2"/>
<text x="1375" y="611" text-anchor="middle" font-family="Arial, Helvetica, sans-serif" font-size="20" font-weight="600" fill="#0f172a">Notifications / History</text>
<line x1="350" y1="235" x2="430" y2="235" stroke="#334155" stroke-width="3" marker-end="url(#arrow)"/>
<line x1="530" y1="280" x2="530" y2="330" stroke="#334155" stroke-width="3" marker-end="url(#arrow)"/>
<line x1="490" y1="415" x2="980" y2="235" stroke="#334155" stroke-width="3" marker-end="url(#arrow)"/>
<line x1="1190" y1="235" x2="1260" y2="235" stroke="#334155" stroke-width="3" marker-end="url(#arrow)"/>
<line x1="1355" y1="280" x2="1355" y2="330" stroke="#334155" stroke-width="3" marker-end="url(#arrow)"/>
<line x1="1190" y1="280" x2="1190" y2="370" stroke="#334155" stroke-width="3" marker-end="url(#arrow)"/>
<line x1="1215" y1="460" x2="1215" y2="530" stroke="#334155" stroke-width="3" marker-end="url(#arrow)"/>
<line x1="1200" y1="605" x2="1280" y2="605" stroke="#334155" stroke-width="3" marker-end="url(#arrow)"/>
<line x1="1090" y1="415" x2="490" y2="605" stroke="#334155" stroke-width="3" marker-end="url(#arrow)"/>
<text x="790" y="210" text-anchor="middle" font-family="Arial, Helvetica, sans-serif" font-size="16" font-weight="500" fill="#0f172a">window payload</text>
<text x="1360" y="335" text-anchor="middle" font-family="Arial, Helvetica, sans-serif" font-size="16" font-weight="500" fill="#0f172a">score stream</text>
<text x="1215" y="515" text-anchor="middle" font-family="Arial, Helvetica, sans-serif" font-size="16" font-weight="500" fill="#0f172a">events</text>
<text x="805" y="610" text-anchor="middle" font-family="Arial, Helvetica, sans-serif" font-size="16" font-weight="500" fill="#0f172a">final monitor state</text>
</svg>
